<?xml version="1.0" encoding="utf-8"?>
<!-- Generator: Adobe Illustrator 16.0.0, SVG Export Plug-In . SVG Version: 6.00 Build 0)  -->
<!DOCTYPE svg PUBLIC "-//W3C//DTD SVG 1.1//EN" "http://www.w3.org/Graphics/SVG/1.1/DTD/svg11.dtd">
<svg version="1.1" id="Layer_1" xmlns="http://www.w3.org/2000/svg" xmlns:xlink="http://www.w3.org/1999/xlink" x="0px" y="0px"
	 width="77.73px" height="72.951px" viewBox="0 0 77.73 72.951" enable-background="new 0 0 77.73 72.951" xml:space="preserve">
<g>
	<path fill="#F91C95" d="M53.569,72.968h-7.589V41.321H9.589v31.647H2V3.954h7.589v30.475h36.39V3.954h7.589V72.968z"/>
	<path fill="#F91C95" d="M64.878,7.97c0-1.406,0.472-2.586,1.415-3.54C67.235,3.477,68.382,3,69.734,3
		c1.414,0,2.6,0.485,3.559,1.454C74.25,5.422,74.73,6.595,74.73,7.97c0,1.407-0.48,2.579-1.438,3.517
		c-0.959,0.938-2.145,1.406-3.559,1.406c-1.352,0-2.499-0.461-3.441-1.383C65.35,10.588,64.878,9.408,64.878,7.97z M65.916,72.968
		V23.692h7.448v49.276H65.916z"/>
</g>
</svg>
