<?xml version="1.0" encoding="utf-8"?>
<!-- Generator: Adobe Illustrator 16.0.0, SVG Export Plug-In . SVG Version: 6.00 Build 0)  -->
<!DOCTYPE svg PUBLIC "-//W3C//DTD SVG 1.1//EN" "http://www.w3.org/Graphics/SVG/1.1/DTD/svg11.dtd">
<svg version="1.1" id="Layer_1" xmlns="http://www.w3.org/2000/svg" xmlns:xlink="http://www.w3.org/1999/xlink" x="0px" y="0px"
	 width="1203.115px" height="228.846px" viewBox="0 0 1203.115 228.846" enable-background="new 0 0 1203.115 228.846"
	 xml:space="preserve">
<polyline fill="#F9DD10" points="808.398,-281.749 808.398,654.346 -142.697,654.346 -142.697,-281.749 "/>
<g>
	<polygon fill="#FFFFFF" points="1157.16,228.846 1082.805,174.823 1008.447,228.846 1036.85,141.435 962.492,87.412 
		888.135,141.435 916.537,228.846 842.18,174.823 767.824,228.846 796.227,141.435 721.869,87.412 647.514,141.435 675.914,228.846 
		601.558,174.823 527.202,228.846 555.603,141.435 481.246,87.412 406.89,141.435 435.292,228.846 360.935,174.823 286.578,228.846 
		314.98,141.435 240.623,87.412 166.267,141.435 194.668,228.846 120.312,174.823 45.955,228.846 74.356,141.435 0,87.412 
		0,234.567 1203.115,234.567 1203.115,87.412 1128.76,141.435 	"/>
	<polygon fill="#FFFFFF" points="0,-5.721 0,87.412 91.91,87.412 120.312,0 148.713,87.412 240.623,87.412 332.533,87.412 
		360.935,0 389.337,87.412 481.246,87.412 573.157,87.412 601.558,0 629.959,87.412 721.869,87.412 813.779,87.412 842.18,0 
		870.584,87.412 962.492,87.412 1054.402,87.412 1082.805,0 1111.205,87.412 1203.115,87.412 1203.115,-5.721 	"/>
</g>
<rect x="-16.684" y="-146.735" fill="#FFFFFF" width="16.684" height="90.009"/>
<polygon fill="#F9DD10" points="181.336,-443.435 28.468,-332.369 86.858,-512.077 -66.01,-623.143 122.946,-623.143 
	181.336,-802.851 "/>
</svg>
