<?xml version="1.0" encoding="utf-8"?>
<!-- Generator: Adobe Illustrator 16.0.0, SVG Export Plug-In . SVG Version: 6.00 Build 0)  -->
<!DOCTYPE svg PUBLIC "-//W3C//DTD SVG 1.1//EN" "http://www.w3.org/Graphics/SVG/1.1/DTD/svg11.dtd">
<svg version="1.1" id="Layer_1" xmlns="http://www.w3.org/2000/svg" xmlns:xlink="http://www.w3.org/1999/xlink" x="0px" y="0px"
	 width="96.485px" height="42.424px" viewBox="0 0 96.485 42.424" enable-background="new 0 0 96.485 42.424" xml:space="preserve">
<g>
	<path fill="#FFD000" d="M33.85,35.476c0.033,0.2,0.058,0.392,0.075,0.575c0.017,0.183,0.025,0.391,0.025,0.625
		c0,0.4-0.117,0.766-0.35,1.1c-0.1,0.166-0.234,0.325-0.4,0.475c-0.167,0.15-0.367,0.275-0.6,0.375
		c-0.833,0.467-1.717,0.633-2.65,0.5c-0.467-0.133-0.884-0.35-1.25-0.65c-0.067-0.067-0.117-0.108-0.15-0.125
		c-0.033-0.017-0.067-0.059-0.1-0.125c-0.034-0.034-0.067-0.075-0.1-0.125c-0.034-0.05-0.083-0.092-0.15-0.125
		c-0.167-0.167-0.3-0.325-0.4-0.475c-0.1-0.15-0.2-0.309-0.3-0.475c-0.067-0.167-0.142-0.325-0.225-0.475
		c-0.083-0.15-0.175-0.309-0.275-0.475c-0.067-0.134-0.134-0.259-0.2-0.375c-0.067-0.117-0.117-0.242-0.15-0.375
		c-0.133-0.3-0.217-0.567-0.25-0.8l-1.05-2.45c-2.3,0-4.592,0.009-6.875,0.025c-2.284,0.017-4.575,0.009-6.875-0.025l-1.05,2.45
		c-0.067,0.133-0.108,0.266-0.125,0.4c-0.017,0.133-0.059,0.266-0.125,0.4c-0.067,0.133-0.125,0.258-0.175,0.375
		c-0.05,0.116-0.108,0.241-0.175,0.375c-0.1,0.167-0.192,0.325-0.275,0.475C9.591,36.701,9.5,36.859,9.4,37.026
		c-0.067,0.166-0.15,0.325-0.25,0.475c-0.1,0.15-0.233,0.308-0.4,0.475c-0.067,0.033-0.117,0.075-0.15,0.125
		c-0.034,0.05-0.067,0.091-0.1,0.125c-0.034,0.066-0.067,0.108-0.1,0.125c-0.034,0.017-0.083,0.058-0.15,0.125
		c-0.367,0.3-0.784,0.517-1.25,0.65c-0.934,0.133-1.817-0.033-2.65-0.5c-0.234-0.1-0.434-0.225-0.6-0.375
		c-0.167-0.15-0.3-0.309-0.4-0.475c-0.234-0.334-0.35-0.7-0.35-1.1c0-0.234,0.008-0.442,0.025-0.625
		c0.017-0.184,0.042-0.375,0.075-0.575c0.066-0.3,0.15-0.6,0.25-0.9l0.15-0.45l10.4-25.6l0.3-0.8c0.066-0.2,0.15-0.383,0.25-0.55
		c0.1-0.167,0.183-0.367,0.25-0.6c0.166-0.433,0.35-0.816,0.55-1.15c0.1-0.2,0.216-0.383,0.35-0.55c0.133-0.166,0.266-0.333,0.4-0.5
		c0.2-0.266,0.483-0.482,0.85-0.65c0.466-0.167,1.008-0.25,1.625-0.25c0.616,0,1.158,0.083,1.625,0.25
		c0.366,0.167,0.65,0.384,0.85,0.65c0.232,0.3,0.482,0.65,0.75,1.05c0.2,0.333,0.383,0.717,0.55,1.15
		c0.066,0.233,0.15,0.434,0.25,0.6c0.1,0.167,0.183,0.35,0.25,0.55l0.3,0.8l10.4,25.6l0.15,0.45
		C33.7,34.876,33.783,35.176,33.85,35.476z M22,23.226c-0.434-0.966-0.875-1.966-1.325-3c-0.45-1.033-0.925-2.083-1.425-3.15
		c-0.134-0.3-0.267-0.608-0.4-0.925c-0.134-0.316-0.267-0.625-0.4-0.925c-0.1,0.3-0.217,0.609-0.35,0.925
		c-0.134,0.317-0.267,0.625-0.4,0.925c-0.5,1.067-0.975,2.117-1.425,3.15c-0.45,1.034-0.892,2.034-1.325,3l-0.9,2.2h8.85L22,23.226z
		"/>
	<path fill="#FFD000" d="M64.9,4.726c0.333,0.434,0.5,0.867,0.5,1.3c0.033,0.2,0.041,0.45,0.025,0.75
		c-0.017,0.3-0.042,0.533-0.075,0.7c-0.1,0.333-0.333,0.667-0.7,1c-0.1,0.1-0.217,0.192-0.35,0.275C64.166,8.835,64,8.91,63.8,8.976
		c-0.2,0.067-0.4,0.109-0.6,0.125c-0.2,0.017-0.417,0.042-0.65,0.075C62.316,9.21,62.1,9.235,61.9,9.251
		c-0.2,0.018-0.417,0.025-0.65,0.025H58.4v0.85c-0.034,3,0.025,6,0.175,9s0.125,6-0.075,9c-0.1,1-0.25,2.025-0.45,3.075
		c-0.2,1.05-0.525,2.034-0.975,2.95c-0.45,0.916-1.042,1.758-1.775,2.525c-0.734,0.766-1.667,1.366-2.8,1.8
		c-1.067,0.4-2.233,0.683-3.5,0.85c-1.267,0.167-2.542,0.183-3.825,0.05c-1.284-0.133-2.509-0.417-3.675-0.85
		c-1.167-0.434-2.15-1.034-2.95-1.8c-0.434-0.4-0.833-0.892-1.2-1.475c-0.367-0.583-0.617-1.2-0.75-1.85
		c-0.133-0.65-0.1-1.283,0.1-1.9c0.2-0.616,0.667-1.125,1.4-1.525c0.633-0.366,1.208-0.45,1.725-0.25
		c0.517,0.2,1.017,0.517,1.5,0.95c0.483,0.434,0.983,0.883,1.5,1.35c0.517,0.467,1.091,0.767,1.725,0.9
		c1.366,0.333,2.483,0.342,3.35,0.025c0.866-0.316,1.55-0.825,2.05-1.525c0.5-0.7,0.858-1.55,1.075-2.55
		c0.216-1,0.35-2.016,0.4-3.05c0.05-1.033,0.058-2.033,0.025-3c-0.034-0.966-0.034-1.783,0-2.45c0.033-1.766,0.033-3.5,0-5.2
		c-0.034-1.7-0.05-3.433-0.05-5.2v-0.2c0.033-0.066,0.05-0.167,0.05-0.3H51.3c-0.2-0.033-0.617-0.058-1.25-0.075
		C49.416,9.385,48.732,9.376,48,9.376c-0.733,0-1.425-0.008-2.075-0.025c-0.65-0.016-1.075-0.025-1.275-0.025h-0.7v-0.05
		c-0.267-0.033-0.534-0.083-0.8-0.15c-0.268-0.066-0.534-0.133-0.8-0.2c-0.633-0.2-1.117-0.517-1.45-0.95
		c-0.167-0.167-0.292-0.433-0.375-0.8C40.441,6.81,40.4,6.493,40.4,6.226c0-0.167,0-0.35,0-0.55c0-0.2,0.033-0.383,0.1-0.55
		c0.066-0.366,0.3-0.7,0.7-1c0.267-0.2,0.583-0.35,0.95-0.45c0.232-0.066,0.466-0.117,0.7-0.15c0.233-0.033,0.483-0.066,0.75-0.1
		c0.233-0.033,0.466-0.05,0.7-0.05c0.233,0,0.483,0,0.75,0h4.8c0.2,0,0.433,0,0.7,0c0.266,0,0.566-0.016,0.9-0.05
		c1.3,0,2.583,0,3.85,0c1.266,0,2.5,0.017,3.7,0.05h0.3c0.366,0,0.725,0.009,1.075,0.025c0.35,0.017,0.708,0.025,1.075,0.025
		c0.767,0.034,1.483,0.184,2.15,0.45C64.132,4.01,64.566,4.293,64.9,4.726z"/>
	<path fill="#FFD000" d="M75.999,9.476l-0.1,7.85h2c1.366-0.033,2.583-0.05,3.65-0.05c1.066,0,2.25,0.017,3.55,0.05h0.25
		c0.4,0,0.791,0.009,1.175,0.025c0.383,0.017,0.758,0.025,1.125,0.025c0.4,0.034,0.783,0.092,1.15,0.175
		c0.367,0.083,0.733,0.175,1.1,0.275c0.566,0.2,1.033,0.5,1.4,0.9c0.333,0.434,0.5,0.917,0.5,1.45c0,0.167,0,0.358,0,0.575
		c0,0.217-0.034,0.409-0.1,0.575c-0.067,0.367-0.283,0.7-0.65,1c-0.167,0.233-0.483,0.4-0.95,0.5c-0.434,0.134-0.867,0.217-1.3,0.25
		c-0.467,0.1-0.934,0.15-1.4,0.15h-2.35l-9.25,0.05l-0.1,9.8l9.95,0.1h2.35c0.266,0,0.516,0,0.75,0c0.233,0,0.45,0.017,0.65,0.05
		c0.267,0.067,0.508,0.109,0.725,0.125c0.216,0.017,0.425,0.059,0.625,0.125c0.4,0.134,0.733,0.317,1,0.55
		c0.333,0.333,0.55,0.683,0.65,1.05c0.033,0.167,0.058,0.341,0.075,0.525c0.016,0.183,0.008,0.375-0.025,0.575
		c0,0.533-0.167,1.016-0.5,1.45c-0.4,0.467-0.867,0.767-1.4,0.9c-0.7,0.3-1.467,0.45-2.3,0.45c-0.367,0.033-0.75,0.05-1.15,0.05
		c-0.4,0-0.784,0.016-1.15,0.05h-0.3c-2.6,0.066-5.3,0.066-8.1,0c-0.667,0-1.2-0.009-1.6-0.025c-0.4-0.017-0.758-0.025-1.075-0.025
		c-0.317,0-0.642,0-0.975,0c-0.333,0-0.767,0-1.3,0c-0.768,0.066-1.4-0.067-1.9-0.4c-0.367-0.233-0.65-0.55-0.85-0.95
		c-0.1-0.1-0.15-0.2-0.15-0.3c-0.033-0.067-0.067-0.117-0.1-0.15c-0.034-0.034-0.067-0.083-0.1-0.15
		c-0.067-0.167-0.117-0.342-0.15-0.525c-0.034-0.184-0.05-0.359-0.05-0.525c-0.034-0.167-0.059-0.334-0.075-0.5
		c-0.018-0.167-0.042-0.334-0.075-0.5v-0.8c0-0.133,0.008-0.266,0.025-0.4c0.017-0.133,0.025-0.267,0.025-0.4v-3.9l0.1-7.2v-6.65
		c0-1.2,0.008-2.267,0.025-3.2c0.017-0.933,0.042-1.95,0.075-3.05v-0.25c0.033-0.367,0.058-0.708,0.075-1.025
		c0.016-0.316,0.025-0.642,0.025-0.975c0.033-0.667,0.216-1.316,0.55-1.95c0.133-0.266,0.275-0.5,0.425-0.7
		c0.15-0.2,0.357-0.367,0.625-0.5c0.5-0.3,1.016-0.45,1.55-0.45c0.267,0,0.466,0.017,0.6,0.05v-0.05c0.6,0,1.083,0,1.45,0
		c0.367,0,0.725,0,1.075,0s0.725-0.008,1.125-0.025c0.4-0.017,0.95-0.025,1.65-0.025c1.333-0.033,2.6-0.05,3.8-0.05
		c1.2,0,2.433,0.017,3.7,0.05h0.2c0.366,0.033,0.75,0.05,1.15,0.05s0.783,0.017,1.15,0.05c0.367,0,0.733,0.042,1.1,0.125
		c0.366,0.084,0.733,0.192,1.1,0.325c0.566,0.167,1.033,0.45,1.4,0.85c0.3,0.467,0.45,0.934,0.45,1.4c0,0.2,0,0.392,0,0.575
		c0,0.184-0.034,0.358-0.1,0.525c-0.034,0.333-0.234,0.684-0.6,1.05c-0.134,0.067-0.275,0.15-0.425,0.25
		c-0.15,0.1-0.325,0.184-0.525,0.25c-0.2,0.067-0.408,0.109-0.625,0.125c-0.217,0.017-0.425,0.042-0.625,0.075
		c-0.267,0.067-0.508,0.1-0.725,0.1c-0.217,0-0.459,0-0.725,0h-2.25l-10,0.05V9.476z"/>
</g>
</svg>
