<?xml version="1.0" encoding="utf-8"?>
<!-- Generator: Adobe Illustrator 16.0.0, SVG Export Plug-In . SVG Version: 6.00 Build 0)  -->
<!DOCTYPE svg PUBLIC "-//W3C//DTD SVG 1.1//EN" "http://www.w3.org/Graphics/SVG/1.1/DTD/svg11.dtd">
<svg version="1.1" id="Layer_1" xmlns="http://www.w3.org/2000/svg" xmlns:xlink="http://www.w3.org/1999/xlink" x="0px" y="0px"
	 width="96.484px" height="42.424px" viewBox="0 0 96.484 42.424" enable-background="new 0 0 96.484 42.424" xml:space="preserve">
<g>
	<path fill="#FFFFFF" stroke="#FFD000" stroke-miterlimit="10" d="M33.85,35.476c0.033,0.2,0.059,0.393,0.075,0.575
		s0.025,0.392,0.025,0.625c0,0.4-0.117,0.767-0.351,1.101c-0.1,0.166-0.233,0.324-0.399,0.475c-0.167,0.15-0.367,0.275-0.601,0.375
		c-0.833,0.467-1.717,0.633-2.649,0.5c-0.468-0.133-0.885-0.35-1.25-0.65c-0.067-0.066-0.117-0.107-0.15-0.125
		c-0.033-0.017-0.067-0.059-0.1-0.125c-0.034-0.033-0.067-0.074-0.101-0.125c-0.034-0.05-0.083-0.092-0.149-0.125
		c-0.167-0.166-0.301-0.324-0.4-0.475s-0.2-0.309-0.3-0.475c-0.067-0.168-0.143-0.325-0.226-0.476
		C27.192,36.401,27.1,36.242,27,36.076c-0.067-0.134-0.134-0.259-0.2-0.375c-0.067-0.117-0.117-0.242-0.15-0.375
		c-0.133-0.3-0.217-0.567-0.25-0.8l-1.05-2.45c-2.3,0-4.592,0.009-6.875,0.024c-2.284,0.018-4.575,0.01-6.875-0.024l-1.05,2.45
		c-0.067,0.133-0.108,0.266-0.125,0.399s-0.059,0.267-0.125,0.4c-0.067,0.133-0.125,0.258-0.175,0.375
		c-0.05,0.116-0.108,0.241-0.175,0.375c-0.101,0.167-0.192,0.325-0.275,0.475C9.591,36.701,9.5,36.858,9.4,37.026
		c-0.066,0.166-0.149,0.324-0.25,0.475c-0.1,0.15-0.232,0.309-0.399,0.475c-0.067,0.033-0.117,0.075-0.15,0.125
		c-0.034,0.051-0.066,0.092-0.1,0.125c-0.034,0.066-0.067,0.108-0.101,0.125c-0.033,0.018-0.083,0.059-0.149,0.125
		c-0.367,0.301-0.784,0.518-1.25,0.65c-0.935,0.133-1.817-0.033-2.65-0.5c-0.233-0.1-0.434-0.225-0.6-0.375
		c-0.167-0.15-0.3-0.309-0.4-0.475C3.116,37.442,3,37.076,3,36.676c0-0.233,0.008-0.442,0.024-0.625
		c0.018-0.184,0.042-0.375,0.075-0.575c0.066-0.3,0.15-0.6,0.25-0.899l0.15-0.45L13.9,8.526l0.301-0.8
		c0.065-0.2,0.149-0.383,0.25-0.55c0.1-0.167,0.183-0.367,0.25-0.6c0.166-0.433,0.35-0.816,0.55-1.15c0.1-0.2,0.216-0.383,0.35-0.55
		c0.133-0.166,0.267-0.333,0.4-0.5c0.2-0.266,0.482-0.482,0.85-0.65c0.466-0.167,1.008-0.25,1.625-0.25
		c0.616,0,1.158,0.083,1.625,0.25c0.366,0.167,0.65,0.384,0.851,0.65c0.231,0.3,0.481,0.65,0.75,1.05
		c0.199,0.333,0.383,0.717,0.55,1.15c0.065,0.233,0.149,0.434,0.25,0.6c0.1,0.167,0.183,0.35,0.25,0.55l0.3,0.8l10.4,25.6
		l0.149,0.45C33.7,34.876,33.783,35.176,33.85,35.476z M22,23.226c-0.435-0.966-0.875-1.966-1.325-3
		c-0.45-1.033-0.925-2.083-1.425-3.15c-0.134-0.3-0.268-0.608-0.4-0.925c-0.134-0.316-0.267-0.625-0.399-0.925
		c-0.101,0.3-0.218,0.609-0.351,0.925c-0.134,0.317-0.267,0.625-0.399,0.925c-0.5,1.067-0.976,2.117-1.426,3.15
		c-0.449,1.034-0.892,2.034-1.324,3l-0.9,2.2h8.85L22,23.226z"/>
	<path fill="#FFFFFF" stroke="#FFD000" stroke-miterlimit="10" d="M64.9,4.726c0.333,0.434,0.5,0.867,0.5,1.3
		c0.033,0.2,0.041,0.45,0.025,0.75c-0.017,0.3-0.042,0.533-0.075,0.7c-0.1,0.333-0.333,0.667-0.7,1c-0.1,0.1-0.217,0.192-0.35,0.275
		C64.166,8.835,64,8.91,63.8,8.976c-0.2,0.067-0.4,0.109-0.6,0.125c-0.2,0.017-0.417,0.042-0.65,0.075
		C62.316,9.21,62.1,9.235,61.9,9.251C61.7,9.269,61.483,9.276,61.25,9.276H58.4v0.85c-0.033,3,0.025,6,0.176,9
		c0.149,3,0.125,6-0.075,9c-0.101,1-0.25,2.025-0.45,3.075s-0.525,2.034-0.975,2.95c-0.45,0.916-1.042,1.758-1.775,2.524
		c-0.734,0.767-1.667,1.366-2.8,1.8c-1.067,0.4-2.233,0.684-3.5,0.851c-1.268,0.167-2.542,0.183-3.825,0.05
		c-1.284-0.133-2.509-0.417-3.675-0.85c-1.167-0.435-2.15-1.034-2.95-1.801c-0.434-0.399-0.833-0.892-1.2-1.475
		s-0.617-1.2-0.75-1.85c-0.133-0.65-0.1-1.283,0.101-1.9c0.199-0.616,0.667-1.125,1.399-1.525c0.633-0.365,1.208-0.449,1.726-0.25
		c0.517,0.2,1.017,0.518,1.5,0.95c0.482,0.435,0.982,0.884,1.5,1.351c0.517,0.467,1.091,0.767,1.725,0.899
		c1.366,0.333,2.483,0.343,3.35,0.025c0.866-0.316,1.551-0.825,2.051-1.525s0.857-1.55,1.074-2.55s0.351-2.016,0.4-3.05
		c0.05-1.033,0.058-2.033,0.025-3c-0.034-0.966-0.034-1.783,0-2.45c0.032-1.766,0.032-3.5,0-5.2c-0.034-1.7-0.051-3.433-0.051-5.2
		v-0.2c0.033-0.066,0.051-0.167,0.051-0.3H51.3c-0.2-0.033-0.617-0.058-1.25-0.075C49.416,9.385,48.732,9.376,48,9.376
		c-0.733,0-1.425-0.008-2.075-0.025c-0.65-0.016-1.075-0.025-1.275-0.025H43.95v-0.05c-0.268-0.033-0.534-0.083-0.801-0.15
		c-0.268-0.066-0.533-0.133-0.8-0.2c-0.633-0.2-1.117-0.517-1.45-0.95c-0.167-0.167-0.292-0.433-0.375-0.8
		C40.441,6.81,40.4,6.493,40.4,6.226c0-0.167,0-0.35,0-0.55c0-0.2,0.033-0.383,0.101-0.55c0.065-0.366,0.3-0.7,0.7-1
		c0.267-0.2,0.583-0.35,0.949-0.45c0.232-0.066,0.467-0.117,0.7-0.15c0.233-0.033,0.483-0.066,0.75-0.1
		c0.233-0.033,0.466-0.05,0.7-0.05c0.233,0,0.483,0,0.75,0h4.8c0.2,0,0.434,0,0.7,0c0.266,0,0.566-0.016,0.9-0.05
		c1.3,0,2.583,0,3.85,0c1.266,0,2.5,0.017,3.7,0.05h0.3c0.366,0,0.725,0.009,1.075,0.025c0.35,0.017,0.708,0.025,1.075,0.025
		c0.767,0.034,1.482,0.184,2.149,0.45C64.132,4.01,64.566,4.293,64.9,4.726z"/>
	<path fill="#FFFFFF" stroke="#FFD000" stroke-miterlimit="10" d="M75.999,9.476l-0.101,7.85h2c1.366-0.033,2.583-0.05,3.65-0.05
		c1.066,0,2.25,0.017,3.55,0.05h0.25c0.4,0,0.791,0.009,1.175,0.025c0.384,0.017,0.759,0.025,1.125,0.025
		c0.4,0.034,0.783,0.092,1.15,0.175s0.733,0.175,1.1,0.275c0.566,0.2,1.033,0.5,1.4,0.9c0.333,0.434,0.5,0.917,0.5,1.45
		c0,0.167,0,0.358,0,0.575s-0.034,0.409-0.1,0.575c-0.067,0.367-0.283,0.7-0.65,1c-0.167,0.233-0.483,0.399-0.95,0.5
		c-0.434,0.134-0.867,0.217-1.3,0.25c-0.467,0.1-0.934,0.149-1.4,0.149h-2.35l-9.25,0.051l-0.1,9.8l9.949,0.1h2.351
		c0.266,0,0.516,0,0.75,0c0.232,0,0.45,0.017,0.649,0.05c0.268,0.067,0.509,0.109,0.726,0.125c0.216,0.018,0.425,0.06,0.625,0.125
		c0.399,0.135,0.732,0.317,1,0.551c0.333,0.332,0.55,0.683,0.649,1.05c0.033,0.167,0.059,0.341,0.075,0.524s0.008,0.375-0.024,0.575
		c0,0.533-0.167,1.017-0.5,1.45c-0.4,0.467-0.867,0.768-1.4,0.9c-0.7,0.3-1.467,0.449-2.3,0.449c-0.367,0.033-0.75,0.051-1.15,0.051
		c-0.399,0-0.784,0.016-1.149,0.05h-0.301c-2.6,0.065-5.3,0.065-8.1,0c-0.667,0-1.2-0.009-1.6-0.025
		c-0.4-0.017-0.759-0.024-1.075-0.024c-0.317,0-0.643,0-0.976,0s-0.767,0-1.3,0c-0.768,0.065-1.399-0.067-1.899-0.4
		c-0.367-0.232-0.65-0.55-0.851-0.95c-0.1-0.1-0.149-0.2-0.149-0.3c-0.033-0.066-0.067-0.117-0.101-0.15
		c-0.034-0.033-0.066-0.082-0.1-0.149c-0.067-0.167-0.117-0.343-0.15-0.525c-0.034-0.184-0.05-0.358-0.05-0.524
		c-0.034-0.168-0.059-0.334-0.075-0.5c-0.018-0.168-0.042-0.334-0.075-0.5v-0.801c0-0.133,0.009-0.266,0.025-0.399
		s0.025-0.267,0.025-0.4v-3.899l0.1-7.2v-6.65c0-1.2,0.008-2.267,0.025-3.2c0.017-0.933,0.042-1.95,0.074-3.05v-0.25
		c0.033-0.367,0.059-0.708,0.075-1.025c0.017-0.316,0.025-0.642,0.025-0.975c0.033-0.667,0.216-1.316,0.55-1.95
		c0.133-0.266,0.275-0.5,0.425-0.7c0.15-0.2,0.357-0.367,0.625-0.5c0.5-0.3,1.017-0.45,1.55-0.45c0.268,0,0.467,0.017,0.601,0.05
		v-0.05c0.6,0,1.083,0,1.45,0c0.366,0,0.725,0,1.074,0c0.351,0,0.726-0.008,1.125-0.025c0.4-0.017,0.95-0.025,1.65-0.025
		c1.333-0.033,2.6-0.05,3.8-0.05s2.434,0.017,3.7,0.05h0.2c0.366,0.033,0.75,0.05,1.149,0.05c0.4,0,0.783,0.017,1.15,0.05
		c0.367,0,0.733,0.042,1.1,0.125c0.366,0.084,0.733,0.192,1.101,0.325c0.565,0.167,1.033,0.45,1.399,0.85
		c0.301,0.467,0.45,0.934,0.45,1.4c0,0.2,0,0.392,0,0.575c0,0.184-0.034,0.358-0.1,0.525c-0.034,0.333-0.234,0.684-0.601,1.05
		c-0.134,0.067-0.274,0.15-0.425,0.25c-0.149,0.1-0.325,0.184-0.524,0.25c-0.2,0.067-0.408,0.109-0.625,0.125
		c-0.218,0.017-0.426,0.042-0.625,0.075c-0.268,0.067-0.509,0.1-0.726,0.1s-0.459,0-0.725,0h-2.25l-10,0.05V9.476z"/>
</g>
</svg>
